/* XPM */
static char *ic_application__[] = {
/* columns rows colors chars-per-pixel */
"16 16 15 1",
"  c #ED1C24",
". c #0071BC",
"X c #50A2D7",
"o c #B0D5ED",
"O c #EFCED1",
"+ c #F4CDD0",
"@ c #F4CFD3",
"# c #F4D2D4",
"$ c #F6D2D4",
"% c #D9E8F1",
"& c #FBFAFB",
"* c #FCFBFC",
"= c #FFFFFE",
"- c gray100",
"; c None",
/* pixels */
";;;;;;;;;;;;o ;;",
";;;;;;;;;;;o ;;;",
";;;;;;;;;;;X ;;;",
";;;;;;;;;;. X.;;",
";;;;;;;;;.# ;X.;",
";;;;;;;;.- ;;.-.",
";;;;;;;.-# ;;.-.",
";;;;;;.-& ;;;.-.",
";;;;;.-=@ ;;X.-.",
";;;;.--& ;;X%X.;",
";;;.---$ ;X%-.;;",
";;.---* ;X%-.;;;",
"..XXXX+ X...;;;;",
";;;;;; ;;;;;;;;;",
";;;;;O ;;;;;;;;;",
";;;;; ;;;;;;;;;;"
};
