/* XPM */
static char *ic_application__[] = {
/* columns rows colors chars-per-pixel */
"48 48 108 2",
"   c black",
".  c #00090F",
"X  c #160400",
"o  c #170500",
"O  c #1E0600",
"+  c #000A11",
"@  c #15161E",
"#  c #2A0800",
"$  c #340A00",
"%  c #3B0C00",
"&  c #001320",
"*  c #00233B",
"=  c #00243C",
"-  c #501000",
";  c #721700",
":  c #002843",
">  c #003253",
",  c #003356",
"<  c #253952",
"1  c #003E68",
"2  c #004572",
"3  c #004777",
"4  c #901D00",
"5  c #921D00",
"6  c #961E00",
"7  c #9B1F00",
"8  c #9F2000",
"9  c #91250D",
"0  c #B02300",
"q  c #B72500",
"w  c #CC2900",
"e  c #D42A00",
"r  c #D92B00",
"t  c #E62E00",
"y  c #E72E00",
"u  c #F33100",
"i  c #F53100",
"p  c #F63100",
"a  c #F73100",
"s  c #F93200",
"d  c #FE3300",
"f  c #FF3300",
"g  c #FF4010",
"h  c #FF4D20",
"j  c #FF6640",
"k  c #DF8777",
"l  c #FF8060",
"z  c #005186",
"x  c #005288",
"c  c #005289",
"v  c #00548B",
"b  c #00548C",
"n  c #00558D",
"m  c #00558E",
"M  c #005893",
"N  c #005E9C",
"B  c #0061A1",
"V  c #0063A5",
"C  c #0066AA",
"Z  c #0067AB",
"A  c #0069AF",
"S  c #116AA5",
"D  c #126FAD",
"F  c #006CB3",
"G  c #006DB5",
"H  c #006EB7",
"J  c #006FB8",
"K  c #0070BB",
"L  c #0071BC",
"P  c #157BBE",
"I  c #227EBC",
"U  c #107AC0",
"Y  c #2380BE",
"T  c #2083C4",
"R  c #308CC9",
"E  c #4095CD",
"W  c #509DD1",
"Q  c #609AC5",
"!  c #60A6D5",
"~  c #78ACD0",
"^  c #70AFD9",
"/  c #DF9487",
"(  c #CF9893",
")  c #E69884",
"_  c #FF9980",
"`  c #DFA197",
"'  c #FFB39F",
"]  c #FFCCBF",
"[  c #88AFCF",
"{  c #80B8DE",
"}  c #8FC1E2",
"|  c #9FCAE6",
" . c #AFD3EA",
".. c #BFDCEE",
"X. c gray80",
"o. c #CECECE",
"O. c LightGray",
"+. c #D1D9DF",
"@. c #DADADA",
"#. c #FFD9CF",
"$. c #FFE6DF",
"%. c #CFE4F2",
"&. c #DFEDF7",
"*. c #FFEEEA",
"=. c #FFF2EF",
"-. c #EFF6FB",
";. c gray100",
":. c None",
/* pixels */
":.:.:.:.:.:.:.:.:.:.:.:.:.:.:.:.:.:.:.:.:.:.:.:.:.:.:.:.:.:.:.:.:.:.:.:.:.*.g f :.:.:.:.:.:.:.:.",
":.:.:.:.:.:.:.:.:.:.:.:.:.:.:.:.:.:.:.:.:.:.:.:.:.:.:.:.:.:.:.:.:.:.:.:.:._ f :.:.:.:.:.:.:.:.:.",
":.:.:.:.:.:.:.:.:.:.:.:.:.:.:.:.:.:.:.:.:.:.:.:.:.:.:.:.:.:.:.:.:.:.:.:.[ g s O :.:.:.:.:.:.:.:.",
":.:.:.:.:.:.:.:.:.:.:.:.:.:.:.:.:.:.:.:.:.:.:.:.:.:.:.:.:.:.:.:.:.:.:.L k f 8                   ",
":.:.:.:.:.:.:.:.:.:.:.:.:.:.:.:.:.:.:.:.:.:.:.:.:.:.:.:.:.:.:.:.:.:.:.Q g a o                   ",
":.:.:.:.:.:.:.:.:.:.:.:.:.:.:.:.:.:.:.:.:.:.:.:.:.:.:.:.:.:.:.:.:.:.:.k f 7                     ",
":.:.:.:.:.:.:.:.:.:.:.:.:.:.:.:.:.:.:.:.:.:.:.:.:.:.:.:.:.:.:.:.:.L Q g p X                     ",
":.:.:.:.:.:.:.:.:.:.:.:.:.:.:.:.:.:.:.:.:.:.:.:.:.:.:.:.:.:.:.:.:.:./ f 6                       ",
":.:.:.:.:.:.:.:.:.:.:.:.:.:.:.:.:.:.:.:.:.:.:.:.:.:.:.:.:.:.:.:.:.! h i @                       ",
":.:.:.:.:.:.:.:.:.:.:.:.:.:.:.:.:.:.:.:.:.:.:.:.:.:.:.:.:.:.:.L L ` f 9 G 2 :.:.:.:.:.:.:.:.:.:.",
":.:.:.:.:.:.:.:.:.:.:.:.:.:.:.:.:.:.:.:.:.:.:.:.:.:.:.:.:.:.:.:.! h f < L L :.:.:.:.:.:.:.:.:.:.",
":.:.:.:.:.:.:.:.:.:.:.:.:.:.:.:.:.:.:.:.:.:.:.:.:.:.:.:.:.:.:.:.( f 0 & T L J :.:.:.:.:.:.:.:.:.",
":.:.:.:.:.:.:.:.:.:.:.:.:.:.:.:.:.:.:.:.:.:.:.:.:.:.:.:.:.L L { h f #   D } L Z :.:.:.:.:.:.:.:.",
":.:.:.:.:.:.:.:.:.:.:.:.:.:.:.:.:.:.:.:.:.:.:.:.:.:.:.:.:.:.R ' f 0     M ..E L x :.:.:.:.:.:.:.",
":.:.:.:.:.:.:.:.:.:.:.:.:.:.:.:.:.:.:.:.:.:.:.:.:.:.:.:.:.U &.h f #     :.^ &.L H :.:.:.:.:.:.:.",
":.:.:.:.:.:.:.:.:.:.:.:.:.:.:.:.:.:.:.:.:.:.:.:.:.:.:.:.:. .' f 0         I ;.{ L n :.:.:.:.:.:.",
":.:.:.:.:.:.:.:.:.:.:.:.:.:.:.:.:.:.:.:.:.:.:.:.:.:.L L ^ ;.j f #         N %.-.U A :.:.:.:.:.:.",
":.:.:.:.:.:.:.:.:.:.:.:.:.:.:.:.:.:.:.:.:.:.:.:.:.L L R ;.] f 0           :.} ;.! L 1 :.:.:.:.:.",
":.:.:.:.:.:.:.:.:.:.:.:.:.:.:.:.:.:.:.:.:.:.:.:.:.:.U -.;.j f -             W ;.%.L z :.:.:.:.:.",
":.:.:.:.:.:.:.:.:.:.:.:.:.:.:.:.:.:.:.:.:.:.:.:.:.:...;.] f w               Z ;.;.U V :.:.:.:.:.",
":.:.:.:.:.:.:.:.:.:.:.:.:.:.:.:.:.:.:.:.:.:.:.:.:.| ;.;.j f -               N ..;.E L :.:.:.:.:.",
":.:.:.:.:.:.:.:.:.:.:.:.:.:.:.:.:.:.:.:.:.:.L L ! ;.;.] f w                 :.{ ;.! L :.:.:.:.:.",
":.:.:.:.:.:.:.:.:.:.:.:.:.:.:.:.:.:.:.:.:.L L E ;.;.;.j f -                 :.W ;.{ L           ",
":.:.:.:.:.:.:.:.:.:.:.:.:.:.:.:.:.:.:.:.L L R -.;.;.#.f w                     Y ;.{ L           ",
":.:.:.:.:.:.:.:.:.:.:.:.:.:.:.:.:.:.:.:.:.U &.;.;.;.l f -                     Z ;.E L           ",
":.:.:.:.:.:.:.:.:.:.:.:.:.:.:.:.:.:.:.:.U %.;.;.;.$.f r                       B ..T C           ",
":.:.:.:.:.:.:.:.:.:.:.:.:.:.:.:.:.:.:.U %.;.;.;.;.l f ;                       B | L b           ",
":.:.:.:.:.:.:.:.:.:.:.:.:.:.:.:.:.:.:. .;.;.;.;.$.f t                         :.U L ,           ",
":.:.:.:.:.:.:.:.:.:.:.:.:.:.:.:.:.:.| ;.;.;.;.;.l f ;                         :.L L + :.:.:.:.:.",
":.:.:.:.:.:.:.:.:.:.:.:.:.:.:.:.:.| ;.;.;.;.;.$.f t                           :.L c             ",
":.:.:.:.:.:.:.:.:.:.:.:.:.:.:.U  .;.;.;.;.;.;.l f ;                           K L 3             ",
":.:.:.:.:.:.:.:.:.:.:.:.L L U %.;.;.;.;.;.;.=.f t                           :.:.:.> :.:.:.:.:.:.",
":.:.:.:.:.:.:.:.:.:.:.:.:.T %.;.;.;.;.;.;.;._ f ;                         :.:.U ! : :.:.:.:.:.:.",
":.:.:.:.:.:.:.:.:.:.:.:.R -.;.;.;.;.;.;.;.=.g t                           L L } E               ",
":.:.:.:.:.:.:.:.:.:.:.! ;.;.;.;.;.;.;.;.;._ f 5                         L L W -.m               ",
":.:.:.:.:.:.:.:.:.U | ;.;.;.;.;.;.;.;.;.=.g u X                       :.:.R -.{ *               ",
":.:.:.:.:.:.:.:.R %.;.;.;.;.;.;.;.;.;.;._ f 5                       :.:.U %.%.n                 ",
":.:.:.:.:.:.U } ;.;.;.;.;.;.;.;.;.;.;.=.g u X                     :.:.U %.%.S .                 ",
":.:.:.:.:.! &.;.;.;.;.;.;.;.;.;.;.;.;._ f 5                     :.:.U  .! m .                   ",
"L L L ! &.;.;.;.;.;.;.;.;.;.;.;.;.;.;.g u X                   L L L F v =                       ",
"P ~ +.@.O.o.X.X.X.X.X.X.X.X.X.X.X.X.) f 5                   :.:.:.:.:.:.:.:.:.:.:.:.:.:.:.:.:.:.",
":.:.:.:.:.:.:.:.:.:.:.:.:.:.:.:.:.:.y f X                                                       ",
":.:.:.:.:.:.:.:.:.:.:.:.:.:.:.:.:.4 f q                                                         ",
":.:.:.:.:.:.:.:.:.:.:.:.:.:.:.:.:.s f $                                                         ",
":.:.:.:.:.:.:.:.:.:.:.:.:.:.:.:.:.:.e                                                           ",
":.:.:.:.:.:.:.:.:.:.:.:.:.:.:.:.d f %                                                           ",
":.:.:.:.:.:.:.:.:.:.:.:.:.:.:.:.:.:.:.:.:.:.:.:.:.:.:.:.:.:.:.:.:.:.:.:.:.:.:.:.:.:.:.:.:.:.:.:.",
":.:.:.:.:.:.:.:.:.:.:.:.:.:.:.:.:.:.:.:.:.:.:.:.:.:.:.:.:.:.:.:.:.:.:.:.:.:.:.:.:.:.:.:.:.:.:.:."
};
