/* XPM */
static const char *ic_class_xpm[] = {
/* columns rows colors chars-per-pixel */
"16 16 2 1",
"  c #008080",
". c None",
/* pixels */
"................",
"................",
"................",
"................",
"................",
".....  ..  .....",
"....  ....  ....",
"...  ......  ...",
"..  ........  ..",
"...  ......  ...",
"....  ....  ....",
".....  ..  .....",
"................",
"................",
"................",
"................"
};
