/* XPM */
static const char *ic_card_xpm[] = {
/* columns rows colors chars-per-pixel */
"16 16 5 1",
"  c black",
". c #008000",
"X c cyan",
"o c gray100",
"O c None",
/* pixels */
"OOOOOOOOOOOOOOOO",
"OOOOOOOOOOOOOOOO",
"                ",
" oooooooooooooo ",
" o oo    o oo o ",
" o  o  o o    o ",
" oooooooooooooo ",
" o         oooo ",
" o .XXXXXX oooo ",
" o ...XXXX oooo ",
" o ....... oooo ",
" o         oooo ",
" oooooooooooooo ",
"                ",
"OOOOOOOOOOOOOOOO",
"OOOOOOOOOOOOOOOO"
};
