/* XPM */
static const char *ic_document_xpm[] = {
/* columns rows colors chars-per-pixel */
"16 16 3 1",
"  c black",
". c gray100",
"X c None",
/* pixels */
"XXXXXXXXXXXXXXXX",
"XXX.......      ",
"XXX....... .    ",
"XXX.......      ",
"XXX..........   ",
"XXX..........   ",
"XXX..........   ",
"XXX..........   ",
"XXX..........   ",
"XXX..........   ",
"XXX..........   ",
"XXX..........   ",
"XXX..........   ",
"XXX..........   ",
"XXX..........   ",
"XXXXXXXXXXXXXXXX"
};
