/* XPM */
static const char *ic_function_xpm[] = {
/* columns rows colors chars-per-pixel */
"16 16 4 1",
"  c black",
". c #008080",
"X c gray100",
"o c None",
/* pixels */
"oooooooooooooooo",
"oooooooooooooooo",
"ooooo..oo..ooooo",
"ooooo..oo..ooooo",
"oooo..oooo..oooo",
"oooo..oooo..oooo",
"oooo..oooo..oooo",
"oooo..oooo..oooo",
"o   ..    ..   o",
"o XX..XXXX..XX o",
"o XX..XXXX..XX o",
"o XXX..XX..XXX o",
"o XXX..XX..XXX o",
"o XXXXXXXXXXXX o",
"o              o",
"oooooooooooooooo"
};
