/* XPM */
static const char *ic_folder_open_xpm[] = {
/* columns rows colors chars-per-pixel */
"16 16 5 1",
"  c black",
". c #808080",
"X c #C0C0C0",
"o c gray100",
"O c None",
/* pixels */
"OOOOOOOOOOOOOOOO",
"OOO....OOOOOOOOO",
"OO.XXXX.OOOOOOOO",
"O.XXXXXX.......O",
"O.XXXXXXXXXXXX. ",
"O.XXXXXXXXXXXX. ",
"............XX. ",
".ooooooooooo.X. ",
".oXXXXXXXXXX.X. ",
"O.oXXXXXXXXXX.. ",
"O.oXXXXXXXXXX.. ",
"OO.oXXXXXXXXXX. ",
"OO............. ",
"OOOOOOOOOOOOOOOO",
"OOOOOOOOOOOOOOOO",
"OOOOOOOOOOOOOOOO"
};
