/* XPM */
static const char *ic_script_xpm[] = {
/* columns rows colors chars-per-pixel */
"16 16 6 1",
"  c black",
". c blue",
"X c #008080",
"o c #808080",
"O c gray100",
"+ c None",
/* pixels */
"++++++++++++++++",
"+++OOOOOOO      ",
"+++OOOOOOO O    ",
"+++O..XXXO      ",
"+++OOOOOOOOOO   ",
"+++OOXXXoooOO   ",
"+++OOOOOOOOOO   ",
"+++OO..XXXOOO   ",
"+++OOOOOOOOOO   ",
"+++OOOXXXXOOO   ",
"+++OOOOOOOOOO   ",
"+++OOXXXooOOO   ",
"+++OOOOOOOOOO   ",
"+++OOOOOOOOOO   ",
"++++++++++++++++",
"++++++++++++++++"
};
