/* XPM */
static char *ic_scripts__[] = {
/* columns rows colors chars-per-pixel */
"16 16 16 1",
"  c black",
". c #ED1C24",
"X c #0071BC",
"o c #50A2D7",
"O c #B0D5ED",
"+ c #EFCED1",
"@ c #F4CDD0",
"# c #F4CFD3",
"$ c #F4D2D4",
"% c #F6D2D4",
"& c #D9E8F1",
"* c #FBFAFB",
"= c #FCFBFC",
"- c #FFFFFE",
"; c gray100",
": c None",
/* pixels */
"::::::::::::O.::",
"           O.:::",
"           o.:::",
"          X.oX::",
"         X$.:oX:",
"::::::::X;.::X;X",
":::::::X;$.::X;X",
"::::::X;*.:::X;X",
":::::X;-#.::oX;X",
"::::X;;*.::o&oX:",
":::X;;;%.:o&;X::",
"::X;;;=.:o&;X:::",
"XXoooo@.oXXX::::",
"::::::.:::::::::",
":::::+.:::::::::",
":::::.::::::::::"
};
