/* XPM */
static char *ic_scripts__[] = {
/* columns rows colors chars-per-pixel */
"32 32 98 2",
"   c black",
".  c #180500",
"X  c #000B12",
"o  c #2D0900",
"O  c #001828",
"+  c #541100",
"@  c #551100",
"#  c #7C1900",
"$  c #6F2F29",
"%  c #002740",
"&  c #002842",
"*  c #003151",
"=  c #003354",
"-  c #00375B",
";  c #004675",
":  c #821A00",
">  c #941E00",
",  c #951E00",
"<  c #961E00",
"1  c #B12300",
"2  c #BF2600",
"3  c #CD2900",
"4  c #D72B00",
"5  c #DF2D00",
"6  c #EA2F00",
"7  c #ED2F00",
"8  c #F03000",
"9  c #F33100",
"0  c #F43100",
"q  c #F93200",
"w  c #FF3300",
"e  c #FF4010",
"r  c #FF4D20",
"t  c #BF5C4F",
"y  c #CF6553",
"u  c #FF6640",
"i  c #CF7E73",
"p  c #C48B7D",
"a  c #FF8060",
"s  c #00538A",
"d  c #135D8F",
"f  c #005D9B",
"g  c #166497",
"h  c #236997",
"j  c #0062A3",
"k  c #0064A6",
"l  c #0065A9",
"z  c #0066AA",
"x  c #0068AD",
"c  c #1368A0",
"v  c #006CB4",
"b  c #006DB5",
"n  c #006EB8",
"m  c #006FB9",
"M  c #0070BA",
"N  c #0070BB",
"B  c #0071BB",
"V  c #0071BC",
"C  c #1070B0",
"Z  c #2576AB",
"A  c #3479A6",
"S  c #2E7FB5",
"D  c #437BAB",
"F  c #407BAD",
"G  c #107AC0",
"H  c #4088BD",
"J  c #5694BE",
"K  c #7E94B0",
"L  c #2083C4",
"P  c #308CC9",
"I  c #4095CD",
"U  c #5097C6",
"Y  c #5498C4",
"T  c #509DD1",
"R  c #60A6D5",
"E  c #64A7D4",
"W  c #75AFD7",
"Q  c #70AFD9",
"!  c #9B9B9B",
"~  c gray62",
"^  c gray65",
"/  c #A2ACB3",
"(  c #FF9980",
")  c #FFB39F",
"_  c #FFBFAF",
"`  c #FFCCBF",
"'  c #8FB4D2",
"]  c #8FC1E2",
"[  c #9FCAE6",
"{  c #AFD3EA",
"}  c #BFDCEE",
"|  c #CFE4F2",
" . c #DFEDF7",
".. c #EFE9EB",
"X. c #FFF2EF",
"o. c #EFF6FB",
"O. c gray100",
"+. c None",
/* pixels */
"+.+.+.+.+.+.+.+.+.+.+.+.+.+.+.+.+.+.+.+.+.+.+.+.+.+.a q +.+.+.+.",
"+.+.+.+.+.+.+.+.+.+.+.+.+.+.+.+.+.+.+.+.+.+.+.+.+.K w , +.+.+.+.",
"                                                +.y 8           ",
"                                              +.D w : +.+.+.+.+.",
"                                              m t 7             ",
"                                            +.F w # +.+.+.+.+.+.",
"                                          +.N t 6 C & +.+.+.+.+.",
"                                          m H e $ V l +.+.+.+.+.",
"+.+.+.+.+.+.+.+.+.+.+.+.+.+.+.+.+.+.+.+.n V i 0 . Y G f +.+.+.+.",
"+.+.+.+.+.+.+.+.+.+.+.+.+.+.+.+.+.+.+.+.V ' e <   g { V = +.+.+.",
"+.+.+.+.+.+.+.+.+.+.+.+.+.+.+.+.+.+.+.N I ( 9 . +.+.{ T x +.+.+.",
"+.+.+.+.+.+.+.+.+.+.+.+.+.+.+.+.+.+.m G ..e >       W  .V - +.+.",
"+.+.+.+.+.+.+.+.+.+.+.+.+.+.+.+.+.n V | ( 9 . +.+.+.S O.I s +.+.",
"+.+.+.+.+.+.+.+.+.+.+.+.+.+.+.+.+.V [ X.e >         +. .] v +.+.",
"+.+.+.+.+.+.+.+.+.+.+.+.+.+.+.+.N R O.( 9 . +.+.+.+.+.[ } V     ",
"+.+.+.+.+.+.+.+.+.+.+.+.+.+.+.B P O.O.e >             E | V     ",
"+.+.+.+.+.+.+.+.+.+.+.+.+.+.m P o.O.) w . +.+.+.+.+.+.U } V     ",
"+.+.+.+.+.+.+.+.+.+.+.+.+.N G  .O.O.r 1               k { V     ",
"+.+.+.+.+.+.+.+.+.+.+.+.N G | O.O.) w o +.+.+.+.+.+.+.z R j     ",
"+.+.+.+.+.+.+.+.+.+.+.N G | O.O.O.r 1                 +.V ; +.+.",
"+.+.+.+.+.+.+.+.+.+.N G | O.O.O.) w o +.+.+.+.+.+.+.+.+.V O +.+.",
"+.+.+.+.+.+.+.+.+.N G | O.O.O.O.r 1                   M V +.+.+.",
"+.+.+.+.+.+.+.+.N P | O.O.O.O.) w o +.+.+.+.+.+.+.+.n G Z       ",
"+.+.+.+.+.+.+.N I o.O.O.O.O.O.r 1                 +.V ] d +.+.+.",
"+.+.+.+.+.m V Q O.O.O.O.O.O._ w o +.+.+.+.+.+.+.+.B R { % +.+.+.",
"+.+.+.+.B L } O.O.O.O.O.O.O.u 2               +.N P  .h         ",
"+.+.M V Q o.O.O.O.O.O.O.O.` w + +.+.+.+.+.+.+.m P { A X +.+.+.+.",
"V G R  .O.O.O.O.O.O.O.O.O.u 3             +.B b c *             ",
"J / ^ ~ ! ! ! ! ! ! ! ! p w @ +.+.+.+.+.+.+.+.+.+.+.+.+.+.+.+.+.",
"+.+.+.+.+.+.+.+.+.+.+.+.5 4                                     ",
"+.+.+.+.+.+.+.+.+.+.+.+.+.+.+.+.+.+.+.+.+.+.+.+.+.+.+.+.+.+.+.+.",
"+.+.+.+.+.+.+.+.+.+.+.+.+.+.+.+.+.+.+.+.+.+.+.+.+.+.+.+.+.+.+.+."
};
