/* XPM */
static const char *ic_template_xpm[] = {
/* columns rows colors chars-per-pixel */
"16 16 4 1",
"  c black",
". c #C0C0C0",
"X c gray100",
"o c None",
/* pixels */
"oooooooooooooooo",
"oooooooooooooooo",
"oooooooooooooooo",
"ooXXXXXXXXXXXX  ",
"ooX  .  . .  X  ",
"ooX ........ X  ",
"ooX..........X  ",
"ooX ........ X  ",
"ooX ........ X  ",
"ooX..........X  ",
"ooX ........ X  ",
"ooX  .  . .  X  ",
"ooXXXXXXXXXXXX  ",
"oooooooooooooooo",
"oooooooooooooooo",
"oooooooooooooooo"
};
