/* XPM */
static const char *tab_right_empty_xpm[] = {
/* columns rows colors chars-per-pixel */
"9 9 2 1",
"  c black",
". c gray100",
/* pixels */
".. ......",
"..  .....",
".. . ....",
".. .. ...",
".. ... ..",
".. .. ...",
".. . ....",
"..  .....",
".. ......"
};
